<?xml version="1.0" encoding="UTF-8" standalone="no"?>
<svg
   xmlns:dc="http://purl.org/dc/elements/1.1/"
   xmlns:cc="http://creativecommons.org/ns#"
   xmlns:rdf="http://www.w3.org/1999/02/22-rdf-syntax-ns#"
   xmlns:svg="http://www.w3.org/2000/svg"
   xmlns="http://www.w3.org/2000/svg"
   xmlns:sodipodi="http://sodipodi.sourceforge.net/DTD/sodipodi-0.dtd"
   xmlns:inkscape="http://www.inkscape.org/namespaces/inkscape"
   inkscape:version="1.0 (4035a4fb49, 2020-05-01)"
   height="34"
   width="34"
   sodipodi:docname="Asterisco2.svg"
   version="1.1"
   viewBox="0 0 58 58.000002"
   data-name="Layer 1"
   id="Layer_1">
  <metadata
     id="metadata18">
    <rdf:RDF>
      <cc:Work
         rdf:about="">
        <dc:format>image/svg+xml</dc:format>
        <dc:type
           rdf:resource="http://purl.org/dc/dcmitype/StillImage" />
        <dc:title>Asterisco_Notas al pie</dc:title>
      </cc:Work>
    </rdf:RDF>
  </metadata>
  <sodipodi:namedview
     scale-x="1"
     viewbox-width="147.15"
     lock-margins="true"
     inkscape:current-layer="Layer_1"
     inkscape:window-maximized="1"
     inkscape:window-y="0"
     inkscape:window-x="0"
     inkscape:cy="36.834841"
     inkscape:cx="17.759074"
     inkscape:zoom="1.6977992"
     fit-margin-bottom="0"
     fit-margin-right="0"
     fit-margin-left="0"
     fit-margin-top="0"
     showgrid="false"
     id="namedview16"
     inkscape:window-height="703"
     inkscape:window-width="1366"
     inkscape:pageshadow="2"
     inkscape:pageopacity="0"
     guidetolerance="10"
     gridtolerance="10"
     objecttolerance="10"
     borderopacity="1"
     bordercolor="#666666"
     pagecolor="#ffffff" />
  <defs
     id="defs7">
    <style
       id="style2">.cls-1{fill:none;}.cls-2{clip-path:url(#clip-path);}.cls-3{fill:#14FF64;}</style>
    <clipPath
       id="clip-path">
      <rect
         id="rect4"
         height="159.38"
         width="147.75"
         y="62.959999"
         x="40.34"
         class="cls-1" />
    </clipPath>
  </defs>
  <title
     id="title9">Asterisco_Notas al pie</title>
  <g
     transform="matrix(0.39255499,0,0,0.36397937,-15.835668,-22.927175)"
     id="g13"
     clip-path="url(#clip-path)"
     class="cls-2">
    <path
       id="path11"
       d="m 105.8,222.35 h 16.84 a 5.3,5.3 0 0 0 5.61,-5.61 L 127.69,166.79 170.9,192 c 2.81,2.24 6.17,1.12 7.86,-1.68 l 8.42,-15.71 a 5.28,5.28 0 0 0 -2.24,-7.86 l -42.65,-23.57 42.65,-24.69 a 5.27,5.27 0 0 0 2.24,-7.85 L 178.76,95 c -1.68,-2.81 -5.05,-3.93 -7.86,-1.68 l -43.21,25.81 0.56,-50.51 A 5.3,5.3 0 0 0 122.64,63 H 105.8 a 5.3,5.3 0 0 0 -5.61,5.61 v 50.51 L 57.54,93.27 C 54.73,91 51.36,92.15 49.68,95 l -8.42,15.71 a 5.27,5.27 0 0 0 2.24,7.85 l 42.65,24.69 -42.65,23.54 a 5.28,5.28 0 0 0 -2.24,7.86 l 8.42,15.71 c 1.68,2.81 5.05,3.93 7.86,1.68 l 42.65,-25.25 v 49.95 a 5.3,5.3 0 0 0 5.61,5.61"
       class="cls-3" />
  </g>
</svg>
