<svg id="Layer_1" data-name="Layer 1" xmlns="http://www.w3.org/2000/svg" xmlns:xlink="http://www.w3.org/1999/xlink" viewBox="0 0 246 301"><defs><style>.cls-1{fill:none;}.cls-2{clip-path:url(#clip-path);}.cls-3{fill:#14ff64;}</style><clipPath id="clip-path"><rect class="cls-1" x="40.34" y="62.96" width="147.75" height="159.38"/></clipPath></defs><title>Asterisco_Notas al pie</title><g class="cls-2"><path class="cls-3" d="M105.8,222.35h16.84a5.3,5.3,0,0,0,5.61-5.61l-.56-49.95L170.9,192c2.81,2.24,6.17,1.12,7.86-1.68l8.42-15.71a5.28,5.28,0,0,0-2.24-7.86l-42.65-23.57,42.65-24.69a5.27,5.27,0,0,0,2.24-7.85L178.76,95c-1.68-2.81-5.05-3.93-7.86-1.68l-43.21,25.81.56-50.51A5.3,5.3,0,0,0,122.64,63H105.8a5.3,5.3,0,0,0-5.61,5.61v50.51L57.54,93.27C54.73,91,51.36,92.15,49.68,95l-8.42,15.71a5.27,5.27,0,0,0,2.24,7.85l42.65,24.69L43.5,166.79a5.28,5.28,0,0,0-2.24,7.86l8.42,15.71c1.68,2.81,5.05,3.93,7.86,1.68l42.65-25.25v49.95a5.3,5.3,0,0,0,5.61,5.61"/></g></svg>