<svg id="324e238d-1e66-4f36-b986-ee31e32609de" data-name="Layer 1" xmlns="http://www.w3.org/2000/svg" viewBox="0 0 423 289"><defs><style>.\32 1bba610-2473-4565-8d55-c5e70b85a45a,.\33 350490a-ca98-4a41-8778-fb3ee1997d9f,.\38 ea7cf7c-b8fa-4045-ac7a-667bfd7df4e4,.a0356131-2560-434e-b6f8-fd156f3cd767,.d3509dc2-5e5e-444e-b5ee-275c0f099cd0,.d3976e76-7896-4076-9036-ca82dfc3ac4a{font-size:12.76px;}.\32 1bba610-2473-4565-8d55-c5e70b85a45a,.\38 ea7cf7c-b8fa-4045-ac7a-667bfd7df4e4{fill:#ccc;}.\32 1bba610-2473-4565-8d55-c5e70b85a45a,.\33 350490a-ca98-4a41-8778-fb3ee1997d9f,.\38 ea7cf7c-b8fa-4045-ac7a-667bfd7df4e4,.a0356131-2560-434e-b6f8-fd156f3cd767,.c3ee5a06-750a-4c74-b2fb-3f0f51aa584c,.d3509dc2-5e5e-444e-b5ee-275c0f099cd0,.d3976e76-7896-4076-9036-ca82dfc3ac4a{font-family:Klavika-Medium, Klavika;}.c3ee5a06-750a-4c74-b2fb-3f0f51aa584c,.d3976e76-7896-4076-9036-ca82dfc3ac4a,.e85a48de-56cb-465d-8fa5-28b4c6386662{fill:#78fa78;}.\38 3249580-b897-48ba-b53f-a1019cd83940{letter-spacing:-0.01em;}.a9990f94-a7b4-47a7-bb29-999ad42ed240{letter-spacing:-0.01em;}.d55da656-1bc6-43dd-9e9b-94ed540ec07c{letter-spacing:-0.01em;}.ef2fbe2f-f53b-4d45-8510-3aa0df8fdf5b{letter-spacing:0em;}.c3ee5a06-750a-4c74-b2fb-3f0f51aa584c{font-size:8.51px;}.d3b58d54-2ad1-44b6-8929-3847b2403020{letter-spacing:0em;}.\38 f2604f8-2e87-457d-a2b6-d261c78d194f{letter-spacing:-0.08em;}.\37 329628e-0426-4098-b6c0-88d98a65fa1c{letter-spacing:0em;}.\36 4751131-4b01-4182-89c1-44400b104264{letter-spacing:-0.01em;}.\38 ea7cf7c-b8fa-4045-ac7a-667bfd7df4e4,.ff00a2c2-f9bb-48d0-ad6a-6f08fdcd756a{letter-spacing:0em;}.\33 350490a-ca98-4a41-8778-fb3ee1997d9f{fill:#6f7073;}.d3509dc2-5e5e-444e-b5ee-275c0f099cd0{fill:#929497;}.a0356131-2560-434e-b6f8-fd156f3cd767{fill:#231f20;}.\36 901eb26-573c-4ba9-a903-b52c386c47ad{fill:none;stroke:#78fa78;stroke-miterlimit:10;stroke-width:2px;}</style></defs><title>Ficha Técnica_ING-03</title><text class="21bba610-2473-4565-8d55-c5e70b85a45a" transform="translate(29 79.44)">ROUTE: </text><path class="e85a48de-56cb-465d-8fa5-28b4c6386662" d="M37.17,40.35H35.71v2.36H33.19V33.88h4.22c2.47,0,3.25,1,3.25,2.64V37.7a2.26,2.26,0,0,1-1.05,2.13l1.94,2.89H38.73Zm.17-4.45H35.71v2.48h1.63c.63,0,.87-.26.87-.77v-1C38.21,36.14,38,35.9,37.34,35.9Zm5.65-2h6.39v2H45.51v1.34h3.57v2H45.51v1.48h3.88v2H43Zm8.27,6.22V36.48c0-1.87,1.24-2.77,3.71-2.77a18.88,18.88,0,0,1,3.35.31l-.24,2.11c-1.19-.14-2.36-.24-3.11-.24s-1.19.24-1.19,1v2.84c0,.65.27,1,1.19,1a10.37,10.37,0,0,0,1.31-.09v-2.4h2.28v4.15a13.94,13.94,0,0,1-3.59.48C52.38,42.89,51.26,41.88,51.26,40.1Zm9.59-6.22h2.52v8.84H60.85Zm4.56,8.4.41-1.87a11.17,11.17,0,0,0,2.82.43c.94,0,1.12-.19,1.12-.7s-.1-.7-1.7-1c-2.31-.37-2.55-1.28-2.55-2.89,0-1.94,1.17-2.58,3.5-2.58a13.16,13.16,0,0,1,3,.37l-.29,2A13.73,13.73,0,0,0,69,35.76c-.82,0-1,.12-1,.61s.09.68,1.6,1c2.48.44,2.65,1,2.65,2.69,0,1.9-.68,2.87-3.67,2.87A8.61,8.61,0,0,1,65.41,42.27Zm13,.44H75.91V36.05H73.34V33.88H81v2.18H78.42Zm8-2.36H85v2.36H82.47V33.88h4.22c2.47,0,3.25,1,3.25,2.64V37.7a2.26,2.26,0,0,1-1.05,2.13l1.94,2.89H88Zm.17-4.45H85v2.48h1.63c.63,0,.87-.26.87-.77v-1C87.49,36.14,87.25,35.9,86.62,35.9Zm10.94,5.49h-3l-.37,1.33H91.67l2.81-8.84h3.09l2.82,8.84H97.93Zm-2.48-2H97l-1-3.52Zm10.6,3.28h-2.52V36.05h-2.57V33.88h7.65v2.18h-2.57Zm4.14-8.84h2.52v8.84h-2.52ZM114.54,40V36.58c0-1.53,1.12-2.87,3.89-2.87s3.89,1.34,3.89,2.87V40c0,1.53-1.12,2.87-3.89,2.87S114.54,41.54,114.54,40Zm3.89-4.13c-1,0-1.38.37-1.38,1v2.82c0,.63.43,1,1.38,1s1.38-.37,1.38-1V36.89C119.81,36.26,119.38,35.88,118.43,35.88Zm8.4,1.45v5.39h-2.38V33.88h3l2.94,5.41V33.88h2.38v8.84h-3Zm16.07,5.39h-2.52V36.05h-2.57V33.88h7.65v2.18h-2.57ZM147,33.88h6.39v2h-3.88v1.34H153v2h-3.57v1.48h3.88v2H147ZM155.23,40V36.58c0-1.89,1.16-2.87,3.69-2.87a15.06,15.06,0,0,1,2.91.31l-.26,2.07a16.34,16.34,0,0,0-2.65-.24c-.83,0-1.17.31-1.17,1v2.89c0,.7.34,1,1.17,1a14.37,14.37,0,0,0,2.65-.24l.26,2.07a14,14,0,0,1-2.91.31C156.38,42.89,155.23,41.9,155.23,40Zm13.83-.65h-2.84v3.35H163.7V33.88h2.52v3.32h2.84V33.88h2.52v8.84h-2.52Zm7.28-2v5.39H174V33.88h3l2.94,5.41V33.88h2.38v8.84h-3Zm8.4-3.45h2.52v8.84h-2.52ZM189.47,40V36.58c0-1.89,1.16-2.87,3.69-2.87a15.06,15.06,0,0,1,2.91.31l-.26,2.07a16.34,16.34,0,0,0-2.65-.24c-.83,0-1.17.31-1.17,1v2.89c0,.7.34,1,1.17,1a14.37,14.37,0,0,0,2.65-.24l.26,2.07a14,14,0,0,1-2.91.31C190.63,42.89,189.47,41.9,189.47,40Zm13.59,1.38h-3l-.37,1.33h-2.47L200,33.88h3.09l2.82,8.84h-2.47Zm-2.48-2h1.92l-1-3.52Zm6.77-5.56h2.52v6.66h3.71v2.18h-6.22Zm11.67,0h2.52v8.84H219Zm7.36,3.45v5.39H224V33.88h3l2.94,5.41V33.88h2.38v8.84h-3Zm10.84.29h3.64v2h-3.64v3.09H234.7V33.88h6.44v2h-3.93ZM242.6,40V36.58c0-1.53,1.12-2.87,3.89-2.87s3.89,1.34,3.89,2.87V40c0,1.53-1.12,2.87-3.89,2.87S242.6,41.54,242.6,40Zm3.89-4.13c-1,0-1.38.37-1.38,1v2.82c0,.63.43,1,1.38,1s1.38-.37,1.38-1V36.89C247.87,36.26,247.44,35.88,246.49,35.88Zm10,4.47H255v2.36h-2.52V33.88h4.22c2.47,0,3.25,1,3.25,2.64V37.7a2.26,2.26,0,0,1-1.05,2.13l1.94,2.89h-2.81Zm.17-4.45H255v2.48h1.63c.63,0,.87-.26.87-.77v-1C257.53,36.14,257.29,35.9,256.66,35.9Zm13.22,2.48-1.41,3.25h-2.14l-1.41-3.23-.17,4.32h-2.43l.46-8.84h2.43L267.39,39l2.19-5.17H272l.46,8.84H270Zm9.94,3h-3l-.37,1.33h-2.47l2.81-8.84h3.09l2.82,8.84h-2.47Zm-2.48-2h1.92l-1-3.52Zm10.6,3.28h-2.52V36.05h-2.57V33.88h7.65v2.18h-2.57Zm4.14-8.84h2.52v8.84h-2.52ZM296.79,40V36.58c0-1.53,1.12-2.87,3.89-2.87s3.89,1.34,3.89,2.87V40c0,1.53-1.12,2.87-3.89,2.87S296.79,41.54,296.79,40Zm3.89-4.13c-1,0-1.38.37-1.38,1v2.82c0,.63.43,1,1.38,1s1.38-.37,1.38-1V36.89C302.06,36.26,301.64,35.88,300.69,35.88Zm8.4,1.45v5.39h-2.38V33.88h3l2.94,5.41V33.88H315v8.84h-3Z"/><text class="d3976e76-7896-4076-9036-ca82dfc3ac4a" transform="translate(74.25 79.44)">2.34 km of re<tspan class="83249580-b897-48ba-b53f-a1019cd83940" x="70.17" y="0">c</tspan><tspan x="75.41" y="0">ord</tspan></text><text class="d3976e76-7896-4076-9036-ca82dfc3ac4a" transform="translate(73.91 94.75)">From <tspan class="a9990f94-a7b4-47a7-bb29-999ad42ed240" x="30.85" y="0">S</tspan><tspan x="37.67" y="0">eminario to Nataniel </tspan><tspan class="d55da656-1bc6-43dd-9e9b-94ed540ec07c" x="150.11" y="0">C</tspan><tspan class="ef2fbe2f-f53b-4d45-8510-3aa0df8fdf5b" x="156.66" y="0">ox Street </tspan></text><text class="d3976e76-7896-4076-9036-ca82dfc3ac4a" transform="translate(73.97 110.06)">Av. Libertador Bernardo O’Higgins | South side<tspan class="a9990f94-a7b4-47a7-bb29-999ad42ed240" x="246.63" y="0">w</tspan><tspan x="255.55" y="0">alk </tspan></text><text class="21bba610-2473-4565-8d55-c5e70b85a45a" transform="translate(32 140.68)">CAMERA INFO: </text><text class="d3976e76-7896-4076-9036-ca82dfc3ac4a" transform="translate(116.3 140.68)">Nikon D800 - Nikon Lens 18/300 f4, 5-5.6 </text><text class="21bba610-2473-4565-8d55-c5e70b85a45a" transform="translate(32 171.3)">REGISTRATION DAY:</text><text class="d3976e76-7896-4076-9036-ca82dfc3ac4a" transform="translate(149.72 171.3)">Saturday 23</text><text class="c3ee5a06-750a-4c74-b2fb-3f0f51aa584c" transform="translate(214.12 167.05)">rd </text><text class="d3976e76-7896-4076-9036-ca82dfc3ac4a" transform="translate(223.27 171.3)">N<tspan class="d3b58d54-2ad1-44b6-8929-3847b2403020" x="8.85" y="0">o</tspan><tspan x="15.44" y="0">vembe</tspan><tspan class="8f2604f8-2e87-457d-a2b6-d261c78d194f" x="51.24" y="0">r</tspan><tspan x="54.53" y="0">, 2</tspan><tspan class="d3b58d54-2ad1-44b6-8929-3847b2403020" x="67.09" y="0">0</tspan><tspan class="7329628e-0426-4098-b6c0-88d98a65fa1c" x="74.21" y="0">19</tspan></text><text class="d3976e76-7896-4076-9036-ca82dfc3ac4a" transform="translate(149.83 186.61)">Day #36 f the Social Uprising </text><text class="21bba610-2473-4565-8d55-c5e70b85a45a" transform="translate(32 217.23)"><tspan class="64751131-4b01-4182-89c1-44400b104264">R</tspan><tspan x="8.18" y="0">EGIST</tspan><tspan class="ff00a2c2-f9bb-48d0-ad6a-6f08fdcd756a" x="40.02" y="0">R</tspan><tspan x="48.28" y="0">ATION SCHEDULE:</tspan></text><text class="3350490a-ca98-4a41-8778-fb3ee1997d9f" transform="translate(160.27 217.23)"> </text><text class="d3976e76-7896-4076-9036-ca82dfc3ac4a" transform="translate(184.95 217.23)">7:10 am - 10:18 am</text><text class="8ea7cf7c-b8fa-4045-ac7a-667bfd7df4e4" transform="translate(32 247.85)">PICTURES:</text><text class="d3509dc2-5e5e-444e-b5ee-275c0f099cd0" transform="translate(108.55 263.16)"><tspan xml:space="preserve">          </tspan></text><text class="a0356131-2560-434e-b6f8-fd156f3cd767" transform="translate(135.34 263.16)"><tspan xml:space="preserve">            </tspan></text><text class="d3976e76-7896-4076-9036-ca82dfc3ac4a" transform="translate(92.5 248.16)">136 photog<tspan class="ff00a2c2-f9bb-48d0-ad6a-6f08fdcd756a" x="58.36" y="0">r</tspan><tspan x="62.57" y="0">aphs used (digital and material montage)</tspan></text><rect class="6901eb26-573c-4ba9-a903-b52c386c47ad" x="13.32" y="13" width="384.68" height="262"/></svg>