<?xml version="1.0" encoding="utf-8"?>
<!-- Generator: Adobe Illustrator 21.0.2, SVG Export Plug-In . SVG Version: 6.00 Build 0)  -->
<svg version="1.1" id="Layer_1" xmlns="http://www.w3.org/2000/svg" xmlns:xlink="http://www.w3.org/1999/xlink" x="0px" y="0px"
	 viewBox="0 0 55.1 55.3" style="enable-background:new 0 0 55.1 55.3;" xml:space="preserve">
<style type="text/css">
	.st0{fill:#5AFF84;}
	.st1{fill:#666667;}
	.st2{fill:#FF1771;}
</style>
<g>
	<path class="st0" d="M27.6,12.1c3.4,0,6.7,0,10.1,0c2.2,0,4.3,0,6.5,0c2,0,3.5,1.4,3.5,3.4c0,5.1,0,10.2,0,15.3c0,1.6,0,3.2,0,4.8
		c0,2.1-1.4,3.5-3.5,3.5c-8.5,0-16.9,0-25.4,0c-2.7,0-5.3,0-8,0c-1.5,0-3.1-1.3-3.1-2.9c-0.1-1.2,0-2.5,0-3.8c0-4.4,0-8.7,0-13.1
		c0-1.2,0-2.4,0-3.6c-0.1-2.1,1.6-3.7,3.7-3.7C16.6,12.1,22.1,12.1,27.6,12.1z M45.9,15.8c-0.1,0.1-0.2,0.1-0.2,0.2
		c-0.7,0.7-1.4,1.4-2.1,2.1c-2.8,3-5.7,6-8.5,8.9c-1.2,1.3-2.5,2.6-4,3.7c-2.4,1.7-4.5,1.7-6.8,0C23,29.9,22,28.9,21,27.9
		c-3.6-3.7-7.1-7.4-10.7-11.1c-0.3-0.3-0.7-0.7-1-1c0,6.7,0,13.3,0,20c0,0,0.1,0,0.1,0.1c3.3-3,6.5-6,9.8-9.1
		c0.4,0.4,0.8,0.7,1.2,1.1c-3.4,3.2-6.8,6.3-10.2,9.5c0.3,0,0.6,0.1,0.9,0.1c2.3,0,4.6,0,6.9,0c7.6,0,15.3,0,22.9,0
		c1.2,0,2.3,0,3.5,0c0.2,0,0.5-0.1,0.7-0.1c-3.4-3.2-6.8-6.3-10.2-9.5c0.2-0.2,0.4-0.4,0.6-0.6c0.2-0.2,0.4-0.4,0.6-0.6
		c3.2,3.1,6.4,6.1,9.8,9.1C45.9,29.1,45.9,22.5,45.9,15.8z M10,14c0.1,0.1,0.1,0.1,0.1,0.2c1.3,1.3,2.6,2.6,3.9,4c2.9,3,5.8,6,8.6,9
		c1,1,2.1,2,3.4,2.7c1,0.5,2.1,0.6,3.1,0c0.9-0.5,1.7-1.1,2.5-1.8c1.8-1.7,3.4-3.5,5.1-5.2c2-2.1,4-4.2,6-6.3
		c0.8-0.8,1.6-1.6,2.5-2.5c-0.4-0.1-0.7-0.2-1-0.2c-2.2,0-4.3,0-6.5,0c-7.7,0-15.3,0-23,0c-1.3,0-2.5,0-3.8,0
		C10.6,13.8,10.3,13.9,10,14z"/>
</g>
</svg>
