<svg id="d231ef8f-ac19-44d4-b765-aa0bb24cf012" data-name="Layer 1" xmlns="http://www.w3.org/2000/svg" viewBox="0 0 55.1 55.3"><defs><style>.f9df529c-237b-4b93-a7ca-ded573edbf56{fill:#14FF64;}.a6a03141-50ae-41f3-b9dd-c5f07a9e65b7{fill:#666666;}</style></defs><title>Fullsreen</title><path class="f9df529c-237b-4b93-a7ca-ded573edbf56" d="M18.41,47a23.11,23.11,0,1,1,9,1.82,23.11,23.11,0,0,1-9-1.82"/><polygon class="a6a03141-50ae-41f3-b9dd-c5f07a9e65b7" points="23.62 15.94 23.62 13.54 17.07 13.55 17.07 13.54 14.77 13.54 14.68 22.34 17.08 22.34 17.07 15.88 23.62 15.94"/><polygon class="a6a03141-50ae-41f3-b9dd-c5f07a9e65b7" points="37.9 22.41 40.3 22.41 40.3 15.87 40.3 15.87 40.3 13.56 31.5 13.47 31.5 15.87 37.97 15.87 37.9 22.41"/><polygon class="a6a03141-50ae-41f3-b9dd-c5f07a9e65b7" points="23.62 37.41 23.62 39.8 17.07 39.8 17.07 39.8 14.77 39.8 14.68 31.01 17.08 31.01 17.07 37.47 23.62 37.41"/><polygon class="a6a03141-50ae-41f3-b9dd-c5f07a9e65b7" points="37.9 30.94 40.3 30.94 40.3 37.48 40.3 37.48 40.3 39.79 31.5 39.88 31.5 37.48 37.97 37.48 37.9 30.94"/></svg>