<svg id="d90a7553-34bc-47db-b899-33080961a6b4" data-name="Layer 1" xmlns="http://www.w3.org/2000/svg" viewBox="0 0 151.33 147.33"><defs><style>.b8af239a-6a94-4b03-ae11-43af9099bf76{fill:#5aff84;}</style></defs><title>LLCT</title><path class="b8af239a-6a94-4b03-ae11-43af9099bf76" d="M19,11.43c1.46,0,2.76.65,2.76,1.54V58H50.11c1.46,0,2.68.65,2.68,1.54v7.06c0,.73-1.22,1.46-2.68,1.46H9.84c-1.3,0-2.68-.73-2.68-1.46V13c0-.9,1.38-1.54,2.68-1.54Z"/><path class="b8af239a-6a94-4b03-ae11-43af9099bf76" d="M65.52,92.45c-1.47,0-2.7-.65-2.7-1.64v-7c0-.9,1.23-1.55,2.7-1.55h41.58c1.55,0,2.78.65,2.78,1.55v7c0,1-1.23,1.64-2.78,1.64H93.7v45.34c0,.73-1.31,1.47-2.78,1.47H81.77c-1.47,0-2.78-.73-2.78-1.47l-.08-45.34Z"/><path class="b8af239a-6a94-4b03-ae11-43af9099bf76" d="M139.84,126.85c1,0,1.76.4,1.76,1.07v8.2c0,.57-.79,1-1.76,1h-8c-1,0-1.76-.45-1.76-1v-8.2c0-.68.79-1.07,1.76-1.07Z"/><path class="b8af239a-6a94-4b03-ae11-43af9099bf76" d="M62,40.28c0-8.73.33-11.64,1.59-15.3,3-9.24,10.23-13.89,20.13-13.89,9.57,0,18.12,3.33,21.28,11.23.25.42.53,3.24,0,3.4,0,0-12.93.55-13,.38a8.47,8.47,0,0,0-8.18-4.2c-2.47,0-5.74,2.72-7,6.63-.66,2.08-.95,3.69-.95,11.76s.37,10.61,1,12.69c1.25,3.92,4.46,6.7,7.1,6.82C89,60,90.9,56.7,92.48,53c.59-.14,11.94,0,13.18.06s-.57,4.77-.82,5.19c-3.16,7.9-12.66,11.18-21.07,11.18-9.9,0-17.14-4.66-20.13-13.89C62.38,51.93,62,49,62,40.28Z"/><path class="b8af239a-6a94-4b03-ae11-43af9099bf76" d="M7.87,111.54c0-8.73.33-11.64,1.59-15.3,3-9.24,10.23-13.89,20.13-13.89,9.57,0,18.12,3.33,21.28,11.23.25.42.53,3.24,0,3.4,0,0-12.93.55-13,.38a8.47,8.47,0,0,0-8.18-4.2c-2.47,0-5.74,2.72-7,6.63-.66,2.08-.95,3.69-.95,11.76s.37,10.61,1,12.69c1.25,3.92,4.46,6.7,7.1,6.82,5,.24,6.86-3.09,8.44-6.75.59-.14,11.94,0,13.18.06s-.57,4.77-.82,5.19c-3.16,7.9-12.66,11.18-21.07,11.18-9.9,0-17.14-4.66-20.13-13.89C8.2,123.19,7.87,120.28,7.87,111.54Z"/></svg>