<svg id="800f553a-3e02-4868-8480-816d15828f68" data-name="Layer 1" xmlns="http://www.w3.org/2000/svg" viewBox="0 0 898.55 196.28"><defs><style>.\30 323919d-aeca-43d5-8a9e-acfed91bb460{fill:#14FF64;}</style></defs><title>LCCT</title><path class="0323919d-aeca-43d5-8a9e-acfed91bb460" d="M833.09,66.37H796c-1.31,0-2.41.58-2.41,1.38V74c0,.87,1.1,1.46,2.41,1.46h11.95l0,14.94H559.76c0-6,.31-7.38.87-9.14,1.14-3.59,4.15-6.05,6.42-6.09A7.77,7.77,0,0,1,574.54,79c.11.16,12-.35,12-.35.46-.15.21-2.74,0-3.12-2.9-7.26-10.75-10.31-19.53-10.31-9.09,0-15.73,4.27-18.48,12.75-1.07,3.11-1.41,5.65-1.45,12.39H212.61c0-6,.31-7.38.87-9.14,1.14-3.59,4.15-6.05,6.42-6.09A7.77,7.77,0,0,1,227.4,79c.11.16,12-.35,12-.35.46-.15.21-2.74,0-3.12-2.9-7.26-10.75-10.31-19.53-10.31-9.09,0-15.73,4.27-18.48,12.75-1.07,3.11-1.41,5.65-1.45,12.39H64V67.75c0-.8-1.17-1.38-2.48-1.38H53.33c-1.17,0-2.41.58-2.41,1.38v48.16c0,.66,1.24,1.31,2.41,1.31H89.47c1.31,0,2.4-.66,2.4-1.31v-6.34c0-.8-1.09-1.38-2.4-1.38H64V93.49H199.89c0,6.93.37,9.48,1.45,12.63,2.75,8.48,9.39,12.75,18.48,12.75,7.72,0,16.44-3,19.34-10.27.23-.39,1.77-4.73.75-4.77s-11.56-.19-12.1-.06c-1.45,3.36-3.15,6.41-7.74,6.19-2.42-.11-5.37-2.67-6.52-6.26-.57-1.78-.9-3.93-.94-10.23H547c0,6.93.37,9.48,1.45,12.63,2.75,8.48,9.39,12.75,18.48,12.75,7.72,0,16.44-3,19.34-10.27.23-.39,1.77-4.73.75-4.77s-11.56-.19-12.1-.06c-1.45,3.36-3.15,6.41-7.74,6.19-2.42-.11-5.37-2.67-6.52-6.26-.57-1.78-.9-3.93-.94-10.23H808l0,22.43c0,.66,1.17,1.31,2.48,1.31h8.16c1.31,0,2.48-.66,2.48-1.31V75.47h12c1.38,0,2.48-.58,2.48-1.46V67.75C835.56,66.95,834.47,66.37,833.09,66.37Z"/><path class="0323919d-aeca-43d5-8a9e-acfed91bb460" d="M110.87,109.13H104.5c-.76,0-1.39.31-1.39.85v6.51c0,.45.63.81,1.39.81h6.37c.76,0,1.39-.36,1.39-.81V110C112.26,109.44,111.63,109.13,110.87,109.13Z"/><path class="0323919d-aeca-43d5-8a9e-acfed91bb460" d="M267.08,109.13h-6.37c-.76,0-1.39.31-1.39.85v6.51c0,.45.63.81,1.39.81h6.37c.76,0,1.39-.36,1.39-.81V110C268.47,109.44,267.84,109.13,267.08,109.13Z"/><path class="0323919d-aeca-43d5-8a9e-acfed91bb460" d="M602.62,109.13h-6.37c-.76,0-1.39.31-1.39.85v6.51c0,.45.63.81,1.39.81h6.37c.76,0,1.39-.36,1.39-.81V110C604,109.44,603.38,109.13,602.62,109.13Z"/><path class="0323919d-aeca-43d5-8a9e-acfed91bb460" d="M850.34,109.13H844c-.76,0-1.39.31-1.39.85v6.51c0,.45.63.81,1.39.81h6.37c.76,0,1.39-.36,1.39-.81V110C851.73,109.44,851.1,109.13,850.34,109.13Z"/></svg>