<svg id="c21d3405-27dc-42e0-a9f1-c3297bdaad25" data-name="Layer 1" xmlns="http://www.w3.org/2000/svg" viewBox="0 0 558 199"><defs><style>.\33 fe69860-5f32-45ee-a6ad-2e65a5ef0830{font-size:12px;font-family:DINPro-Regular, DINPro;}.\31 93f61bf-a9cb-4839-9c1e-9f7bacfa2613{letter-spacing:-0.01em;}.\34 ec78b2f-9658-4b14-9638-04611d469dad{letter-spacing:-0.01em;}.\36 5a46126-cb36-4c38-91bb-a23a4053752f{letter-spacing:-0.03em;}.af424f88-56a3-496b-a283-ca6cc578e3ca{letter-spacing:0em;}.\30 67707f2-7596-44db-8d6e-7d09ded03f56{letter-spacing:-0.01em;}.\39 b39bb9a-90c6-4528-b172-2181bf4b3765{letter-spacing:-0.01em;}.\31 3ba06d0-31f4-4266-896a-dc0ea6691a4e{letter-spacing:-0.02em;}.adab788a-eef4-4819-8e3f-1e30f313b0de{letter-spacing:-0.03em;}.e9d49ef0-6fc4-481d-a5e2-5df14c36d72a{letter-spacing:-0.01em;}.\31 cd3e64b-1250-47c3-af90-f756af218a63{letter-spacing:-0.02em;}.c1d71477-15fc-40f3-9341-d1080ecdccc6{letter-spacing:0em;}.cb8c0b75-9d4c-4907-94f4-9ff0858c62e9{letter-spacing:-0.03em;}.add3f945-8166-4d21-8996-ffe29a6de499{letter-spacing:-0.02em;}.d42337cb-7c35-4f4f-8a2d-89bbe1249c0f{letter-spacing:-0.02em;}.\32 b847447-4554-4363-b486-6aea10d10370{letter-spacing:-0.02em;}.\34 223ad07-c2c9-4f20-a409-84ff1dcf4382{letter-spacing:-0.02em;}.\39 d1e4226-e306-47c8-81eb-ff8808edca21{letter-spacing:-0.01em;}.c648a4b2-ea4b-4633-8c2e-8ba58b431aab{letter-spacing:-0.02em;}.\32 d18cb67-9cda-414c-9984-f54c649fd177{letter-spacing:-0.01em;}.dea1eb39-437c-4f3b-915b-dee9a979ef79{letter-spacing:-0.01em;}.\30 2746c1a-52fa-4e42-bf1b-a50010e650d2{letter-spacing:-0.01em;}.d21ff41f-7f98-4bea-95c1-e80f162124d9{letter-spacing:-0.04em;}</style></defs><title>N3</title><text class="3fe69860-5f32-45ee-a6ad-2e65a5ef0830" transform="translate(16 23.54)">Seminario ha<tspan class="193f61bf-a9cb-4839-9c1e-9f7bacfa2613" x="70.55" y="0">s</tspan><tspan class="4ec78b2f-9658-4b14-9638-04611d469dad" x="76.38" y="0">t</tspan><tspan x="80.27" y="0">a la Moneda</tspan><tspan x="0" y="14.4">Seminario pa</tspan><tspan class="65a46126-cb36-4c38-91bb-a23a4053752f" x="70.34" y="14.4">r</tspan><tspan class="af424f88-56a3-496b-a283-ca6cc578e3ca" x="74.99" y="14.4">e</tspan><tspan class="067707f2-7596-44db-8d6e-7d09ded03f56" x="81.35" y="14.4">c</tspan><tspan x="87.05" y="14.4">e pun</tspan><tspan class="9b39bb9a-90c6-4528-b172-2181bf4b3765" x="116.42" y="14.4">t</tspan><tspan x="120.31" y="14.4">o de fuga</tspan><tspan x="0" y="28.8">No </tspan><tspan class="13ba06d0-31f4-4266-896a-dc0ea6691a4e" x="18.13" y="28.8">l</tspan><tspan x="21.46" y="28.8">o es, pe</tspan><tspan class="adab788a-eef4-4819-8e3f-1e30f313b0de" x="62.17" y="28.8">r</tspan><tspan x="66.81" y="28.8">o anticipa ent</tspan><tspan class="e9d49ef0-6fc4-481d-a5e2-5df14c36d72a" x="138.08" y="28.8">r</tspan><tspan x="143.01" y="28.8">adas y deri</tspan><tspan class="193f61bf-a9cb-4839-9c1e-9f7bacfa2613" x="200.46" y="28.8">v</tspan><tspan x="205.7" y="28.8">as</tspan><tspan x="0" y="43.2">Si a</tspan><tspan class="193f61bf-a9cb-4839-9c1e-9f7bacfa2613" x="19.39" y="43.2">v</tspan><tspan x="24.64" y="43.2">anzo, la </tspan><tspan class="4ec78b2f-9658-4b14-9638-04611d469dad" x="68.58" y="43.2">t</tspan><tspan x="72.47" y="43.2">empe</tspan><tspan class="193f61bf-a9cb-4839-9c1e-9f7bacfa2613" x="102.27" y="43.2">r</tspan><tspan x="107.21" y="43.2">atu</tspan><tspan class="e9d49ef0-6fc4-481d-a5e2-5df14c36d72a" x="124.25" y="43.2">r</tspan><tspan x="129.18" y="43.2">a c</tspan><tspan class="adab788a-eef4-4819-8e3f-1e30f313b0de" x="144.36" y="43.2">r</tspan><tspan x="149" y="43.2">e</tspan><tspan class="067707f2-7596-44db-8d6e-7d09ded03f56" x="155.36" y="43.2">c</tspan><tspan class="af424f88-56a3-496b-a283-ca6cc578e3ca" x="161.06" y="43.2">e, y </tspan><tspan class="9b39bb9a-90c6-4528-b172-2181bf4b3765" x="181.93" y="43.2">t</tspan><tspan x="185.82" y="43.2">ambién las </tspan><tspan class="1cd3e64b-1250-47c3-af90-f756af218a63" x="247.16" y="43.2">c</tspan><tspan x="252.86" y="43.2">onsignas</tspan><tspan x="0" y="57.6">De</tspan><tspan class="9b39bb9a-90c6-4528-b172-2181bf4b3765" x="14.44" y="57.6">t</tspan><tspan class="c1d71477-15fc-40f3-9341-d1080ecdccc6" x="18.32" y="57.6">enerme en las </tspan><tspan class="067707f2-7596-44db-8d6e-7d09ded03f56" x="97.64" y="57.6">c</tspan><tspan x="103.34" y="57.6">onsignas es un eje</tspan><tspan class="adab788a-eef4-4819-8e3f-1e30f313b0de" x="201.48" y="57.6">r</tspan><tspan x="206.12" y="57.6">cicio de la memoria, pasa</tspan><tspan class="193f61bf-a9cb-4839-9c1e-9f7bacfa2613" x="341.54" y="57.6">r</tspan><tspan x="346.47" y="57.6">án</tspan><tspan x="0" y="72">Queda</tspan><tspan class="193f61bf-a9cb-4839-9c1e-9f7bacfa2613" x="33.74" y="72">r</tspan><tspan x="38.68" y="72">á un </tspan><tspan class="e9d49ef0-6fc4-481d-a5e2-5df14c36d72a" x="64.45" y="72">r</tspan><tspan x="69.38" y="72">a</tspan><tspan class="193f61bf-a9cb-4839-9c1e-9f7bacfa2613" x="75.7" y="72">s</tspan><tspan x="81.53" y="72">t</tspan><tspan class="65a46126-cb36-4c38-91bb-a23a4053752f" x="85.51" y="72">r</tspan><tspan x="90.16" y="72">o inde</tspan><tspan class="cb8c0b75-9d4c-4907-94f4-9ff0858c62e9" x="122.18" y="72">l</tspan><tspan x="125.45" y="72">eb</tspan><tspan class="add3f945-8166-4d21-8996-ffe29a6de499" x="138.35" y="72">l</tspan><tspan x="141.61" y="72">e en e</tspan><tspan class="e9d49ef0-6fc4-481d-a5e2-5df14c36d72a" x="173.41" y="72">s</tspan><tspan class="9b39bb9a-90c6-4528-b172-2181bf4b3765" x="179.24" y="72">t</tspan><tspan x="183.13" y="72">a </tspan><tspan class="1cd3e64b-1250-47c3-af90-f756af218a63" x="192.43" y="72">c</tspan><tspan x="198.13" y="72">on</tspan><tspan class="e9d49ef0-6fc4-481d-a5e2-5df14c36d72a" x="211.23" y="72">s</tspan><tspan x="217.07" y="72">tru</tspan><tspan class="1cd3e64b-1250-47c3-af90-f756af218a63" x="232.85" y="72">c</tspan><tspan x="238.54" y="72">ción, pa</tspan><tspan class="e9d49ef0-6fc4-481d-a5e2-5df14c36d72a" x="279.57" y="72">r</tspan><tspan class="af424f88-56a3-496b-a283-ca6cc578e3ca" x="284.5" y="72">a bien y pa</tspan><tspan class="193f61bf-a9cb-4839-9c1e-9f7bacfa2613" x="340.67" y="72">r</tspan><tspan x="345.61" y="72">a mal</tspan><tspan class="193f61bf-a9cb-4839-9c1e-9f7bacfa2613" x="0" y="86.4">P</tspan><tspan x="7.44" y="86.4">asar due</tspan><tspan class="add3f945-8166-4d21-8996-ffe29a6de499" x="53.7" y="86.4">l</tspan><tspan x="56.96" y="86.4">e, pe</tspan><tspan class="65a46126-cb36-4c38-91bb-a23a4053752f" x="82.38" y="86.4">r</tspan><tspan x="87.02" y="86.4">o es agencia y acti</tspan><tspan class="193f61bf-a9cb-4839-9c1e-9f7bacfa2613" x="183.38" y="86.4">v</tspan><tspan x="188.63" y="86.4">ación de deseos acumulados en el tiempo</tspan><tspan x="0" y="100.8">Cambió el paisaje, definiti</tspan><tspan class="193f61bf-a9cb-4839-9c1e-9f7bacfa2613" x="136.49" y="100.8">v</tspan><tspan x="141.73" y="100.8">amen</tspan><tspan class="4ec78b2f-9658-4b14-9638-04611d469dad" x="171.69" y="100.8">t</tspan><tspan x="175.58" y="100.8">e, y en ese eje</tspan><tspan class="adab788a-eef4-4819-8e3f-1e30f313b0de" x="249.96" y="100.8">r</tspan><tspan x="254.6" y="100.8">cicio de la mi</tspan><tspan class="e9d49ef0-6fc4-481d-a5e2-5df14c36d72a" x="324.11" y="100.8">r</tspan><tspan x="329.05" y="100.8">ada, 2,4 ki</tspan><tspan class="d42337cb-7c35-4f4f-8a2d-89bbe1249c0f" x="382.52" y="100.8">l</tspan><tspan x="385.84" y="100.8">ómet</tspan><tspan class="adab788a-eef4-4819-8e3f-1e30f313b0de" x="413.09" y="100.8">r</tspan><tspan x="417.74" y="100.8">os </tspan><tspan class="2b847447-4554-4363-b486-6aea10d10370" x="433.04" y="100.8">l</tspan><tspan x="436.36" y="100.8">o </tspan><tspan class="4223ad07-c2c9-4f20-a409-84ff1dcf4382" x="445.71" y="100.8">e</tspan><tspan x="451.88" y="100.8">xp</tspan><tspan class="adab788a-eef4-4819-8e3f-1e30f313b0de" x="464.15" y="100.8">r</tspan><tspan x="468.8" y="100.8">esan</tspan><tspan x="0" y="115.2">Me p</tspan><tspan class="adab788a-eef4-4819-8e3f-1e30f313b0de" x="25.68" y="115.2">r</tspan><tspan class="c1d71477-15fc-40f3-9341-d1080ecdccc6" x="30.32" y="115.2">egun</tspan><tspan class="4ec78b2f-9658-4b14-9638-04611d469dad" x="56.69" y="115.2">t</tspan><tspan x="60.58" y="115.2">o si e</tspan><tspan class="193f61bf-a9cb-4839-9c1e-9f7bacfa2613" x="88.26" y="115.2">s</tspan><tspan class="4ec78b2f-9658-4b14-9638-04611d469dad" x="94.09" y="115.2">t</tspan><tspan x="97.98" y="115.2">a imagen segui</tspan><tspan class="193f61bf-a9cb-4839-9c1e-9f7bacfa2613" x="178.39" y="115.2">r</tspan><tspan x="183.32" y="115.2">á siendo </tspan><tspan class="9d1e4226-e306-47c8-81eb-ff8808edca21" x="230.6" y="115.2">c</tspan><tspan class="c1d71477-15fc-40f3-9341-d1080ecdccc6" x="236.34" y="115.2">a</tspan><tspan class="cb8c0b75-9d4c-4907-94f4-9ff0858c62e9" x="242.65" y="115.2">l</tspan><tspan class="067707f2-7596-44db-8d6e-7d09ded03f56" x="245.91" y="115.2">c</tspan><tspan x="251.61" y="115.2">o e</tspan><tspan class="9b39bb9a-90c6-4528-b172-2181bf4b3765" x="267.32" y="115.2">t</tspan><tspan x="271.21" y="115.2">erno de la identidad </tspan><tspan class="c648a4b2-ea4b-4633-8c2e-8ba58b431aab" x="379.54" y="115.2">f</tspan><tspan x="383.08" y="115.2">o</tspan><tspan class="2d18cb67-9cda-414c-9984-f54c649fd177" x="389.44" y="115.2">t</tspan><tspan x="393.33" y="115.2">og</tspan><tspan class="dea1eb39-437c-4f3b-915b-dee9a979ef79" x="406.21" y="115.2">r</tspan><tspan x="411.14" y="115.2">áfi</tspan><tspan class="02746c1a-52fa-4e42-bf1b-a50010e650d2" x="424.19" y="115.2">c</tspan><tspan x="429.93" y="115.2">a y visual de Chi</tspan><tspan class="add3f945-8166-4d21-8996-ffe29a6de499" x="514.85" y="115.2">l</tspan><tspan x="518.12" y="115.2">e</tspan></text><text class="3fe69860-5f32-45ee-a6ad-2e65a5ef0830" transform="translate(16 178.29)"><tspan class="193f61bf-a9cb-4839-9c1e-9f7bacfa2613">P</tspan><tspan x="7.44" y="0">ed</tspan><tspan class="65a46126-cb36-4c38-91bb-a23a4053752f" x="20.34" y="0">r</tspan><tspan x="24.98" y="0">o Á</tspan><tspan class="d21ff41f-7f98-4bea-95c1-e80f162124d9" x="41.66" y="0">l</tspan><tspan class="193f61bf-a9cb-4839-9c1e-9f7bacfa2613" x="44.75" y="0">v</tspan><tspan x="49.99" y="0">a</tspan><tspan class="65a46126-cb36-4c38-91bb-a23a4053752f" x="56.3" y="0">r</tspan><tspan x="60.95" y="0">ez Caselli (1968)</tspan></text></svg>