<svg id="722739c1-9a10-4849-aea0-0fabb8de11f1" data-name="Layer 1" xmlns="http://www.w3.org/2000/svg" viewBox="0 0 558 199"><defs><style>.\34 203a852-7833-485b-946f-ca5e1c9055e1{font-size:12px;font-family:DINPro-Regular, DINPro;}.\34 bfd5259-c2bf-4c5b-8efe-a25c88031801{letter-spacing:-0.03em;}.aa4c0af6-a96b-48be-8779-d93132dfcf55{letter-spacing:0em;}.\39 76cc9ec-fba0-473b-8727-21e521ae3ac7{letter-spacing:-0.01em;}.\34 45f469d-d732-498b-85b7-714b2202bf79{letter-spacing:-0.02em;}.\31 7effc74-cfab-4d51-8c44-d7f77559bcd0{letter-spacing:-0.01em;}.\39 b1c06d5-819c-4424-a67c-7568bbd7b4f1{letter-spacing:-0.01em;}.\39 8fc4c2f-760b-4492-904b-e0488c66deb4{letter-spacing:0em;}.e04211af-038d-425d-b9a6-2d2dea2f4bcf{letter-spacing:-0.02em;}.f84b87f0-2034-4958-b33c-1f9e711c84cb{letter-spacing:-0.02em;}.\34 d1a7ff4-63d5-4e66-9d0d-151adfa70498{letter-spacing:-0.03em;}.e13f309b-a6c4-4954-810f-1f54192b02cb{letter-spacing:-0.01em;}.\34 966e734-8bd3-45dd-be63-8e849f5009a9{letter-spacing:-0.02em;}.\32 7d6afcb-a510-4668-9057-ce9a0a1c661d{letter-spacing:-0.02em;}.\39 11847f4-f8e1-4a11-a57c-1dcb3873f661{letter-spacing:-0.01em;}.\36 dd2033f-271d-4e86-967d-fd37580ee867{letter-spacing:0em;}.\37 d25c25a-3813-4f15-8f04-a13e9e59bd39{letter-spacing:-0.08em;}.\34 79acae0-5c5d-49f8-a052-3e650d3e0972{letter-spacing:-0.01em;}.da9b81ee-2474-4595-a16b-3f4f3115f768{letter-spacing:-0.02em;}.\39 0703aa3-7f5e-4e2d-b444-fcb0a5347dd3{letter-spacing:-0.02em;}.\37 7f7df1e-f33e-4496-96e3-51f7c31559b5{letter-spacing:-0.02em;}.\37 6bdeca3-9d06-42af-b41f-08c109775fb8{letter-spacing:-0.03em;}.c65edb5e-e274-458f-99e9-409f81525832{letter-spacing:-0.02em;}.cb0b13db-db8a-466b-a293-dbd0114b2c21{letter-spacing:-0.01em;}.\37 10f2c18-e988-4afd-a6b4-7edbeb1d955b{letter-spacing:0em;}.\30 d45deb2-5bfc-4d1d-9893-f1eed89e4106{letter-spacing:-0.01em;}.\32 6a6c5b3-bd89-409f-ab8a-96ab1b9ef962{letter-spacing:-0.04em;}</style></defs><title>N3</title><text class="4203a852-7833-485b-946f-ca5e1c9055e1" transform="translate(16 24.54)">Seminario St<tspan class="4bfd5259-c2bf-4c5b-8efe-a25c88031801" x="68.53" y="0">r</tspan><tspan class="aa4c0af6-a96b-48be-8779-d93132dfcf55" x="73.17" y="0">eet up </tspan><tspan class="976cc9ec-fba0-473b-8727-21e521ae3ac7" x="109.14" y="0">t</tspan><tspan x="113.03" y="0">o Moneda St</tspan><tspan class="4bfd5259-c2bf-4c5b-8efe-a25c88031801" x="178.51" y="0">r</tspan><tspan class="aa4c0af6-a96b-48be-8779-d93132dfcf55" x="183.15" y="0">eet</tspan><tspan x="0" y="14.4">Seminario St</tspan><tspan class="4bfd5259-c2bf-4c5b-8efe-a25c88031801" x="68.53" y="14.4">r</tspan><tspan class="aa4c0af6-a96b-48be-8779-d93132dfcf55" x="73.17" y="14.4">eet seems li</tspan><tspan class="445f469d-d732-498b-85b7-714b2202bf79" x="137.63" y="14.4">k</tspan><tspan x="143.82" y="14.4">e a </tspan><tspan class="17effc74-cfab-4d51-8c44-d7f77559bcd0" x="162.46" y="14.4">v</tspan><tspan x="167.71" y="14.4">anishing point</tspan><tspan x="0" y="28.8">It&apos;s not that, but it anticipa</tspan><tspan class="9b1c06d5-819c-4424-a67c-7568bbd7b4f1" x="138.73" y="28.8">t</tspan><tspan class="98fc4c2f-760b-4492-904b-e0488c66deb4" x="142.62" y="28.8">es ent</tspan><tspan class="17effc74-cfab-4d51-8c44-d7f77559bcd0" x="175" y="28.8">r</tspan><tspan x="179.94" y="28.8">an</tspan><tspan class="e04211af-038d-425d-b9a6-2d2dea2f4bcf" x="192.99" y="28.8">c</tspan><tspan x="198.69" y="28.8">es and drifts</tspan><tspan x="0" y="43.2">If I go </tspan><tspan class="f84b87f0-2034-4958-b33c-1f9e711c84cb" x="32.38" y="43.2">f</tspan><tspan x="35.92" y="43.2">orwa</tspan><tspan class="4d1a7ff4-63d5-4e66-9d0d-151adfa70498" x="62.33" y="43.2">r</tspan><tspan x="66.97" y="43.2">d, the </tspan><tspan class="976cc9ec-fba0-473b-8727-21e521ae3ac7" x="99.74" y="43.2">t</tspan><tspan x="103.63" y="43.2">empe</tspan><tspan class="e13f309b-a6c4-4954-810f-1f54192b02cb" x="133.44" y="43.2">r</tspan><tspan class="aa4c0af6-a96b-48be-8779-d93132dfcf55" x="138.37" y="43.2">atu</tspan><tspan class="4d1a7ff4-63d5-4e66-9d0d-151adfa70498" x="155.41" y="43.2">r</tspan><tspan x="160.05" y="43.2">e rises and also the s</tspan><tspan class="445f469d-d732-498b-85b7-714b2202bf79" x="272.53" y="43.2">l</tspan><tspan x="275.85" y="43.2">ogans</tspan><tspan x="0" y="57.6">S</tspan><tspan class="9b1c06d5-819c-4424-a67c-7568bbd7b4f1" x="7.06" y="57.6">t</tspan><tspan class="98fc4c2f-760b-4492-904b-e0488c66deb4" x="10.94" y="57.6">opping in the s</tspan><tspan class="445f469d-d732-498b-85b7-714b2202bf79" x="88.46" y="57.6">l</tspan><tspan x="91.79" y="57.6">ogans is a memory </tspan><tspan class="4966e734-8bd3-45dd-be63-8e849f5009a9" x="195.15" y="57.6">e</tspan><tspan class="445f469d-d732-498b-85b7-714b2202bf79" x="201.32" y="57.6">x</tspan><tspan x="206.82" y="57.6">e</tspan><tspan class="4d1a7ff4-63d5-4e66-9d0d-151adfa70498" x="213.18" y="57.6">r</tspan><tspan x="217.82" y="57.6">cise, th</tspan><tspan class="17effc74-cfab-4d51-8c44-d7f77559bcd0" x="255.93" y="57.6">e</tspan><tspan x="262.17" y="57.6">y will pa</tspan><tspan class="4966e734-8bd3-45dd-be63-8e849f5009a9" x="305.21" y="57.6">s</tspan><tspan x="310.97" y="57.6">s</tspan><tspan x="0" y="72">An indelib</tspan><tspan class="27d6afcb-a510-4668-9057-ce9a0a1c661d" x="52.88" y="72">l</tspan><tspan x="56.15" y="72">e t</tspan><tspan class="e13f309b-a6c4-4954-810f-1f54192b02cb" x="69.48" y="72">r</tspan><tspan x="74.41" y="72">a</tspan><tspan class="e04211af-038d-425d-b9a6-2d2dea2f4bcf" x="80.72" y="72">c</tspan><tspan class="aa4c0af6-a96b-48be-8779-d93132dfcf55" x="86.42" y="72">e will </tspan><tspan class="17effc74-cfab-4d51-8c44-d7f77559bcd0" x="117.61" y="72">s</tspan><tspan class="976cc9ec-fba0-473b-8727-21e521ae3ac7" x="123.44" y="72">t</tspan><tspan x="127.33" y="72">ay in this </tspan><tspan class="911847f4-f8e1-4a11-a57c-1dcb3873f661" x="177.47" y="72">c</tspan><tspan x="183.17" y="72">on</tspan><tspan class="e13f309b-a6c4-4954-810f-1f54192b02cb" x="196.27" y="72">s</tspan><tspan x="202.1" y="72">truction, </tspan><tspan class="f84b87f0-2034-4958-b33c-1f9e711c84cb" x="250.04" y="72">f</tspan><tspan x="253.58" y="72">or bet</tspan><tspan class="9b1c06d5-819c-4424-a67c-7568bbd7b4f1" x="284.86" y="72">t</tspan><tspan x="288.75" y="72">er and </tspan><tspan class="f84b87f0-2034-4958-b33c-1f9e711c84cb" x="325.74" y="72">f</tspan><tspan x="329.28" y="72">or </tspan><tspan class="6dd2033f-271d-4e86-967d-fd37580ee867" x="343.67" y="72">w</tspan><tspan x="352.3" y="72">o</tspan><tspan class="e13f309b-a6c4-4954-810f-1f54192b02cb" x="358.66" y="72">r</tspan><tspan x="363.6" y="72">se</tspan><tspan x="0" y="86.4">It hurts </tspan><tspan class="9b1c06d5-819c-4424-a67c-7568bbd7b4f1" x="41.82" y="86.4">t</tspan><tspan class="98fc4c2f-760b-4492-904b-e0488c66deb4" x="45.71" y="86.4">o pa</tspan><tspan class="4966e734-8bd3-45dd-be63-8e849f5009a9" x="67.91" y="86.4">s</tspan><tspan class="aa4c0af6-a96b-48be-8779-d93132dfcf55" x="73.67" y="86.4">s b</tspan><tspan class="7d25c25a-3813-4f15-8f04-a13e9e59bd39" x="89.15" y="86.4">y</tspan><tspan x="93.55" y="86.4">, but is agency and acti</tspan><tspan class="e13f309b-a6c4-4954-810f-1f54192b02cb" x="213.9" y="86.4">v</tspan><tspan x="219.14" y="86.4">ation of a</tspan><tspan class="e04211af-038d-425d-b9a6-2d2dea2f4bcf" x="267.99" y="86.4">c</tspan><tspan x="273.69" y="86.4">cumula</tspan><tspan class="9b1c06d5-819c-4424-a67c-7568bbd7b4f1" x="313.48" y="86.4">t</tspan><tspan x="317.37" y="86.4">ed wishes in short time</tspan><tspan x="0" y="100.8">The lands</tspan><tspan class="479acae0-5c5d-49f8-a052-3e650d3e0972" x="51.78" y="100.8">c</tspan><tspan x="57.52" y="100.8">ape, defini</tspan><tspan class="9b1c06d5-819c-4424-a67c-7568bbd7b4f1" x="112.31" y="100.8">t</tspan><tspan x="116.2" y="100.8">e</tspan><tspan class="da9b81ee-2474-4595-a16b-3f4f3115f768" x="122.56" y="100.8">l</tspan><tspan x="125.84" y="100.8">y changed, and in that gaze </tspan><tspan class="4966e734-8bd3-45dd-be63-8e849f5009a9" x="272.49" y="100.8">e</tspan><tspan class="90703aa3-7f5e-4e2d-b444-fcb0a5347dd3" x="278.66" y="100.8">x</tspan><tspan x="284.16" y="100.8">e</tspan><tspan class="4d1a7ff4-63d5-4e66-9d0d-151adfa70498" x="290.52" y="100.8">r</tspan><tspan x="295.16" y="100.8">cise, it is </tspan><tspan class="77f7df1e-f33e-4496-96e3-51f7c31559b5" x="344.53" y="100.8">e</tspan><tspan x="350.7" y="100.8">xp</tspan><tspan class="76bdeca3-9d06-42af-b41f-08c109775fb8" x="362.97" y="100.8">r</tspan><tspan x="367.62" y="100.8">e</tspan><tspan class="77f7df1e-f33e-4496-96e3-51f7c31559b5" x="373.98" y="100.8">s</tspan><tspan x="379.74" y="100.8">sed by 2.4 ki</tspan><tspan class="c65edb5e-e274-458f-99e9-409f81525832" x="444.69" y="100.8">l</tspan><tspan x="448.02" y="100.8">ome</tspan><tspan class="cb0b13db-db8a-466b-a293-dbd0114b2c21" x="471.29" y="100.8">t</tspan><tspan x="475.17" y="100.8">e</tspan><tspan class="e13f309b-a6c4-4954-810f-1f54192b02cb" x="481.54" y="100.8">r</tspan><tspan class="710f2c18-e988-4afd-a6b4-7edbeb1d955b" x="486.47" y="100.8">s</tspan><tspan x="0" y="115.2">I </tspan><tspan class="0d45deb2-5bfc-4d1d-9893-f1eed89e4106" x="6.37" y="115.2">w</tspan><tspan x="15" y="115.2">onder if that image will </tspan><tspan class="17effc74-cfab-4d51-8c44-d7f77559bcd0" x="140.45" y="115.2">s</tspan><tspan x="146.28" y="115.2">till be the e</tspan><tspan class="976cc9ec-fba0-473b-8727-21e521ae3ac7" x="205.74" y="115.2">t</tspan><tspan x="209.62" y="115.2">ernal t</tspan><tspan class="e13f309b-a6c4-4954-810f-1f54192b02cb" x="244.63" y="115.2">r</tspan><tspan x="249.56" y="115.2">a</tspan><tspan class="911847f4-f8e1-4a11-a57c-1dcb3873f661" x="255.87" y="115.2">c</tspan><tspan x="261.57" y="115.2">e of the pho</tspan><tspan class="976cc9ec-fba0-473b-8727-21e521ae3ac7" x="323.75" y="115.2">t</tspan><tspan x="327.64" y="115.2">og</tspan><tspan class="e13f309b-a6c4-4954-810f-1f54192b02cb" x="340.52" y="115.2">r</tspan><tspan x="345.45" y="115.2">aph and visual identity of Chi</tspan><tspan class="27d6afcb-a510-4668-9057-ce9a0a1c661d" x="497.15" y="115.2">l</tspan><tspan x="500.42" y="115.2">e</tspan></text><text class="4203a852-7833-485b-946f-ca5e1c9055e1" transform="translate(16 184.29)"><tspan class="e13f309b-a6c4-4954-810f-1f54192b02cb">P</tspan><tspan x="7.44" y="0">ed</tspan><tspan class="4d1a7ff4-63d5-4e66-9d0d-151adfa70498" x="20.34" y="0">r</tspan><tspan x="24.98" y="0">o Á</tspan><tspan class="26a6c5b3-bd89-409f-ab8a-96ab1b9ef962" x="41.66" y="0">l</tspan><tspan class="e13f309b-a6c4-4954-810f-1f54192b02cb" x="44.75" y="0">v</tspan><tspan x="49.99" y="0">a</tspan><tspan class="4d1a7ff4-63d5-4e66-9d0d-151adfa70498" x="56.3" y="0">r</tspan><tspan x="60.95" y="0">ez Caselli (1968)</tspan></text></svg>