<svg id="021d2b99-8e9c-4689-adc3-1233ec87d4b2" data-name="Layer 1" xmlns="http://www.w3.org/2000/svg" viewBox="0 0 389 367"><defs><style>.\34 01b869b-d8d7-4731-874e-7e11c32f320e{font-size:12px;font-family:DINPro-Medium, DINPro;}.de0e4c2c-7059-41ba-a6fc-b45a9d965131{letter-spacing:-0.03em;}.\30 2c4117a-4bdf-4d74-ae9c-330583ec661e{letter-spacing:-0.02em;}.aed5d8fb-74f0-44ab-9f73-55b5260ec2bd{letter-spacing:-0.06em;}.\39 6f30abc-8e47-4a62-bd44-1455fe9b7d2a{font-size:9px;}.\39 6f30abc-8e47-4a62-bd44-1455fe9b7d2a,.cbf9cec6-5d0f-4913-84a3-a03cea506432{font-family:DINPro-Regular, DINPro;}.afecde57-fe7e-4b08-93c5-3cfdffb8b05c{letter-spacing:-0.01em;}.b8525aff-49f0-41eb-9c79-6076f55f080d{letter-spacing:-0.03em;}.\36 e160bbf-a47c-4e1a-8363-478cf046631c{letter-spacing:-0.02em;}.c3c2957b-7cce-4a9a-a4c7-230209f372d4{letter-spacing:-0.01em;}.\32 56ca423-9424-4f3b-b84e-d6531fbcb83a{letter-spacing:-0.02em;}.\35 a0f0f08-c513-4304-b328-95041f34f49d{letter-spacing:0em;}.c0214be4-49e9-4816-be7d-684ea6bd59df{letter-spacing:0em;}.a2ec900e-1aa7-448f-933f-bebd87233dad{letter-spacing:-0.01em;}.\37 9164507-fdf1-424c-82c0-d6b2474df3c1{letter-spacing:0em;}.a439936b-a454-48e2-a0ca-c0c979c64b1a{letter-spacing:-0.08em;}.\35 9f0a942-ab57-49a5-9720-557b0abfe65b{letter-spacing:-0.01em;}.\32 526b58d-59da-4526-8a6f-2e5d18a8dcf5{letter-spacing:-0.01em;}.\31 d451bf5-a01f-403b-8304-5403d758816c{letter-spacing:-0.02em;}.\39 e184ce4-72d3-40ad-9131-0279ffde163a{letter-spacing:-0.01em;}.\39 829287c-cb30-4159-aee5-39b3e1e7a64b{letter-spacing:-0.05em;}.\37 b29a8f5-7418-4467-970d-4a05027909e6{letter-spacing:-0.01em;}.\32 6fabf3f-8a2e-4aa2-b3fd-8d82cc52673b{letter-spacing:-0.02em;}.d3192b26-d92c-411a-8c5a-bc5bae8dd8af{letter-spacing:-0.03em;}.bbe529e9-be77-4685-9020-d1856c7d0691{letter-spacing:-0.01em;}.\38 9e635b5-32f2-4bce-9e30-2f0200bf10bd{letter-spacing:-0.01em;}</style></defs><title>N35</title><text class="401b869b-d8d7-4731-874e-7e11c32f320e" transform="translate(89.19 31.54)">“The walls a<tspan class="de0e4c2c-7059-41ba-a6fc-b45a9d965131" x="66.33" y="0">r</tspan><tspan x="71.23" y="0">e the peop</tspan><tspan class="02c4117a-4bdf-4d74-ae9c-330583ec661e" x="127" y="0">l</tspan><tspan x="130.44" y="0">e</tspan><tspan class="aed5d8fb-74f0-44ab-9f73-55b5260ec2bd" x="136.9" y="0">’</tspan><tspan x="139.4" y="0">s printshop”</tspan><tspan class="96f30abc-8e47-4a62-bd44-1455fe9b7d2a"><tspan x="40.23" y="21.6">(Alameda-San</tspan><tspan class="afecde57-fe7e-4b08-93c5-3cfdffb8b05c" x="97.05" y="21.6">t</tspan><tspan x="99.97" y="21.6">a Rosa c</tspan><tspan class="b8525aff-49f0-41eb-9c79-6076f55f080d" x="133.46" y="21.6">r</tspan><tspan x="136.95" y="21.6">o</tspan><tspan class="6e160bbf-a47c-4e1a-8363-478cf046631c" x="141.72" y="21.6">s</tspan><tspan x="146.04" y="21.6">sing)</tspan></tspan><tspan class="cbf9cec6-5d0f-4913-84a3-a03cea506432"><tspan x="-19.18" y="50.4">An outbu</tspan><tspan class="c3c2957b-7cce-4a9a-a4c7-230209f372d4" x="28.25" y="50.4">rs</tspan><tspan x="39.02" y="50.4">t of </tspan><tspan class="256ca423-9424-4f3b-b84e-d6531fbcb83a" x="59.1" y="50.4">c</tspan><tspan x="64.8" y="50.4">ommon sense on the </tspan><tspan class="256ca423-9424-4f3b-b84e-d6531fbcb83a" x="178.87" y="50.4">c</tspan><tspan class="5a0f0f08-c513-4304-b328-95041f34f49d" x="184.57" y="50.4">onc</tspan><tspan class="b8525aff-49f0-41eb-9c79-6076f55f080d" x="203.56" y="50.4">r</tspan><tspan x="208.2" y="50.4">e</tspan><tspan class="afecde57-fe7e-4b08-93c5-3cfdffb8b05c" x="214.56" y="50.4">t</tspan><tspan class="c0214be4-49e9-4816-be7d-684ea6bd59df" x="218.45" y="50.4">e</tspan><tspan class="c3c2957b-7cce-4a9a-a4c7-230209f372d4" x="64.34" y="64.8">P</tspan><tspan x="71.78" y="64.8">etrified noise</tspan><tspan x="18.68" y="79.2">S</tspan><tspan class="a2ec900e-1aa7-448f-933f-bebd87233dad" x="25.74" y="79.2">c</tspan><tspan x="31.48" y="79.2">abs </tspan><tspan class="afecde57-fe7e-4b08-93c5-3cfdffb8b05c" x="53.27" y="79.2">t</tspan><tspan x="57.15" y="79.2">o </tspan><tspan class="b8525aff-49f0-41eb-9c79-6076f55f080d" x="66.5" y="79.2">r</tspan><tspan x="71.15" y="79.2">emember the </tspan><tspan class="79164507-fdf1-424c-82c0-d6b2474df3c1" x="145.98" y="79.2">w</tspan><tspan x="154.6" y="79.2">ounds</tspan><tspan class="a439936b-a454-48e2-a0ca-c0c979c64b1a" x="54.85" y="93.6">T</tspan><tspan class="5a0f0f08-c513-4304-b328-95041f34f49d" x="60.51" y="93.6">at</tspan><tspan class="afecde57-fe7e-4b08-93c5-3cfdffb8b05c" x="70.8" y="93.6">t</tspan><tspan x="74.69" y="93.6">oos on the city</tspan><tspan x="57.88" y="108">Sett</tspan><tspan class="02c4117a-4bdf-4d74-ae9c-330583ec661e" x="79.26" y="108">l</tspan><tspan x="82.52" y="108">ed emotions</tspan><tspan x="12.09" y="122.4">An </tspan><tspan class="c3c2957b-7cce-4a9a-a4c7-230209f372d4" x="29.15" y="122.4">ov</tspan><tspan x="40.64" y="122.4">erfl</tspan><tspan class="59f0a942-ab57-49a5-9720-557b0abfe65b" x="59.27" y="122.4">o</tspan><tspan x="65.57" y="122.4">w of the individual being</tspan><tspan x="41.84" y="136.8">Sha</tspan><tspan class="b8525aff-49f0-41eb-9c79-6076f55f080d" x="61.96" y="136.8">r</tspan><tspan class="5a0f0f08-c513-4304-b328-95041f34f49d" x="66.6" y="136.8">ed mu</tspan><tspan class="afecde57-fe7e-4b08-93c5-3cfdffb8b05c" x="99.78" y="136.8">t</tspan><tspan x="103.67" y="136.8">ed memory</tspan><tspan x="-54.44" y="151.2">The end of the dic</tspan><tspan class="2526b58d-59da-4526-8a6f-2e5d18a8dcf5" x="39.51" y="151.2">t</tspan><tspan class="5a0f0f08-c513-4304-b328-95041f34f49d" x="43.4" y="151.2">a</tspan><tspan class="2526b58d-59da-4526-8a6f-2e5d18a8dcf5" x="49.71" y="151.2">t</tspan><tspan x="53.6" y="151.2">orial </tspan><tspan class="1d451bf5-a01f-403b-8304-5403d758816c" x="80.91" y="151.2">f</tspan><tspan x="84.45" y="151.2">ea</tspan><tspan class="c3c2957b-7cce-4a9a-a4c7-230209f372d4" x="97.12" y="151.2">r</tspan><tspan class="5a0f0f08-c513-4304-b328-95041f34f49d" x="102.05" y="151.2">s, the eme</tspan><tspan class="b8525aff-49f0-41eb-9c79-6076f55f080d" x="157.5" y="151.2">r</tspan><tspan x="162.15" y="151.2">gen</tspan><tspan class="256ca423-9424-4f3b-b84e-d6531fbcb83a" x="181.77" y="151.2">c</tspan><tspan x="187.47" y="151.2">e of n</tspan><tspan class="79164507-fdf1-424c-82c0-d6b2474df3c1" x="216.67" y="151.2">e</tspan><tspan x="222.97" y="151.2">w ones</tspan><tspan x="-27.95" y="165.6">A b</tspan><tspan class="02c4117a-4bdf-4d74-ae9c-330583ec661e" x="-11.09" y="165.6">l</tspan><tspan x="-7.82" y="165.6">ending of u</tspan><tspan class="2526b58d-59da-4526-8a6f-2e5d18a8dcf5" x="50.96" y="165.6">t</tspan><tspan x="54.85" y="165.6">opias, intima</tspan><tspan class="afecde57-fe7e-4b08-93c5-3cfdffb8b05c" x="122.87" y="165.6">t</tspan><tspan x="126.75" y="165.6">e, pri</tspan><tspan class="c3c2957b-7cce-4a9a-a4c7-230209f372d4" x="153.9" y="165.6">v</tspan><tspan x="159.14" y="165.6">a</tspan><tspan class="afecde57-fe7e-4b08-93c5-3cfdffb8b05c" x="165.45" y="165.6">t</tspan><tspan x="169.34" y="165.6">e and public</tspan><tspan x="59.09" y="180">Exquisi</tspan><tspan class="2526b58d-59da-4526-8a6f-2e5d18a8dcf5" x="97.34" y="180">t</tspan><tspan class="5a0f0f08-c513-4304-b328-95041f34f49d" x="101.22" y="180">e </tspan><tspan class="9e184ce4-72d3-40ad-9131-0279ffde163a" x="110.57" y="180">c</tspan><tspan x="116.27" y="180">orpse</tspan><tspan x="53.79" y="194.4">Identified enemies</tspan><tspan x="55.3" y="208.8">Caring as a shield</tspan><tspan class="9829287c-cb30-4159-aee5-39b3e1e7a64b" x="25.36" y="223.2">T</tspan><tspan class="7b29a8f5-7418-4467-970d-4a05027909e6" x="31.29" y="223.2">r</tspan><tspan x="36.22" y="223.2">ansgene</tspan><tspan class="c3c2957b-7cce-4a9a-a4c7-230209f372d4" x="81.21" y="223.2">r</tspan><tspan x="86.14" y="223.2">ational </tspan><tspan class="b8525aff-49f0-41eb-9c79-6076f55f080d" x="125.44" y="223.2">r</tspan><tspan class="5a0f0f08-c513-4304-b328-95041f34f49d" x="130.08" y="223.2">esi</tspan><tspan class="7b29a8f5-7418-4467-970d-4a05027909e6" x="145.43" y="223.2">s</tspan><tspan class="2526b58d-59da-4526-8a6f-2e5d18a8dcf5" x="151.26" y="223.2">t</tspan><tspan x="155.15" y="223.2">an</tspan><tspan class="9e184ce4-72d3-40ad-9131-0279ffde163a" x="168.21" y="223.2">c</tspan><tspan x="173.91" y="223.2">e</tspan><tspan x="4.99" y="237.6">‘N</tspan><tspan class="59f0a942-ab57-49a5-9720-557b0abfe65b" x="16.93" y="237.6">ew</tspan><tspan x="31.86" y="237.6">en’ and the p</tspan><tspan class="b8525aff-49f0-41eb-9c79-6076f55f080d" x="100.31" y="237.6">r</tspan><tspan x="104.95" y="237.6">o</tspan><tspan class="1d451bf5-a01f-403b-8304-5403d758816c" x="111.31" y="237.6">f</tspan><tspan x="114.85" y="237.6">ound homeland.</tspan><tspan x="-71.8" y="252">“Chi</tspan><tspan class="02c4117a-4bdf-4d74-ae9c-330583ec661e" x="-49.17" y="252">l</tspan><tspan x="-45.9" y="252">e has </tspan><tspan class="59f0a942-ab57-49a5-9720-557b0abfe65b" x="-14.56" y="252">w</tspan><tspan x="-5.93" y="252">o</tspan><tspan class="26fabf3f-8a2e-4aa2-b3fd-8d82cc52673b" x="0.43" y="252">k</tspan><tspan x="6.62" y="252">en up. </tspan><tspan class="a439936b-a454-48e2-a0ca-c0c979c64b1a" x="42.22" y="252">T</tspan><tspan x="47.89" y="252">ell me something mo</tspan><tspan class="d3192b26-d92c-411a-8c5a-bc5bae8dd8af" x="160.4" y="252">r</tspan><tspan x="165.04" y="252">e beautiful than that”</tspan></tspan><tspan class="96f30abc-8e47-4a62-bd44-1455fe9b7d2a"><tspan x="4.19" y="277.2">(Alameda-P</tspan><tspan class="b8525aff-49f0-41eb-9c79-6076f55f080d" x="51.6" y="277.2">r</tspan><tspan x="55.08" y="277.2">esiden</tspan><tspan class="afecde57-fe7e-4b08-93c5-3cfdffb8b05c" x="81.32" y="277.2">t</tspan><tspan x="84.24" y="277.2">e Juan An</tspan><tspan class="afecde57-fe7e-4b08-93c5-3cfdffb8b05c" x="123.41" y="277.2">t</tspan><tspan x="126.32" y="277.2">onio Ríos c</tspan><tspan class="b8525aff-49f0-41eb-9c79-6076f55f080d" x="169.5" y="277.2">r</tspan><tspan x="172.99" y="277.2">o</tspan><tspan class="6e160bbf-a47c-4e1a-8363-478cf046631c" x="177.76" y="277.2">s</tspan><tspan x="182.08" y="277.2">sing)</tspan><tspan x="36.52" y="309.6">*María </tspan><tspan class="bbe529e9-be77-4685-9020-d1856c7d0691" x="65.9" y="309.6">P</tspan><tspan x="71.48" y="309.6">aulina So</tspan><tspan class="89e635b5-32f2-4bce-9e30-2f0200bf10bd" x="108.32" y="309.6">t</tspan><tspan x="111.23" y="309.6">o Labbé (1964)</tspan></tspan></text></svg>