<svg id="f260f9ae-0ba1-4ae4-b772-d056e491c0a0" data-name="Layer 1" xmlns="http://www.w3.org/2000/svg" viewBox="0 0 327 351"><defs><style>.bfb0487b-4137-4c88-b5bf-72dc1cfeec5c{font-size:12px;font-family:DINPro-Medium, DINPro;}.\34 6d75019-a9aa-45fc-af54-c81544b7333f{letter-spacing:-0.03em;}.\36 d700519-1f44-4bb7-a881-c35bae251f22{letter-spacing:-0.03em;}.\30 fff43ef-c218-466f-aed3-8a23c07f7401{letter-spacing:0em;}.c83c8cf2-8fa7-42c3-b768-01b69c54ad33{letter-spacing:-0.02em;}.\33 22d327f-5e7f-47f3-8fc1-a4d2df541073{font-size:9px;}.\30 7637e01-5a60-4990-8d5b-1a59ac2625f0,.\33 22d327f-5e7f-47f3-8fc1-a4d2df541073,.e673ce09-682f-4812-a690-4eba3085e52c{font-family:DINPro-Regular, DINPro;}.\30 b5a06d1-094c-4703-ba41-33f9b21f5e05{letter-spacing:-0.01em;}.ba7da15e-ac0b-4146-8421-8249f4c5ff61{letter-spacing:-0.01em;}.ba8fc3a5-4396-4149-acf2-09bce6b95b21{letter-spacing:-0.02em;}.\37 c22160b-0632-43ae-a679-914b046267a6{letter-spacing:-0.01em;}.\37 a972bcd-f157-4e2e-ae9d-5779b7cd767f{letter-spacing:-0.01em;}.b7d31c96-0457-4cb8-8d7e-4e84c56ad8a1{letter-spacing:-0.01em;}.b1f30e3d-1fa1-4a26-8810-4ff2de0fb209{letter-spacing:-0.01em;}.df1a418f-989c-4a2d-8f6e-468589577d7c{letter-spacing:-0.03em;}.be97a26a-1595-400e-9565-8b76951fd262{letter-spacing:-0.03em;}.e673ce09-682f-4812-a690-4eba3085e52c{letter-spacing:-0.08em;}.\32 4f348ad-b716-4afe-95c2-23a305652671{letter-spacing:0em;}.a3c87f31-d214-453d-8b3b-ee9fe673646a{letter-spacing:-0.02em;}.\30 2beee0f-30a4-467b-9712-0b5fa3e579d2{letter-spacing:-0.02em;}.\33 efbe389-1c4b-4b46-a49f-65be90543d51{letter-spacing:-0.01em;}.\35 3e8c2be-305f-4d3a-a972-bce3f77ec197{letter-spacing:-0.01em;}.a0bea254-b6d7-44b7-8a22-f430679d6f12{letter-spacing:-0.01em;}</style></defs><title>N35</title><text class="bfb0487b-4137-4c88-b5bf-72dc1cfeec5c" transform="translate(53.71 24.54)">“Las pa<tspan class="46d75019-a9aa-45fc-af54-c81544b7333f" x="40.62" y="0">r</tspan><tspan x="45.51" y="0">edes son la imp</tspan><tspan class="6d700519-1f44-4bb7-a881-c35bae251f22" x="129.38" y="0">r</tspan><tspan x="134.28" y="0">en</tspan><tspan class="0fff43ef-c218-466f-aed3-8a23c07f7401" x="147.56" y="0">t</tspan><tspan x="151.63" y="0">a del pueb</tspan><tspan class="c83c8cf2-8fa7-42c3-b768-01b69c54ad33" x="207.14" y="0">l</tspan><tspan x="210.63" y="0">o”</tspan><tspan class="322d327f-5e7f-47f3-8fc1-a4d2df541073"><tspan x="64.32" y="21.6">(Alameda y San</tspan><tspan class="0b5a06d1-094c-4703-ba41-33f9b21f5e05" x="125.82" y="21.6">t</tspan><tspan x="128.73" y="21.6">a Rosa)</tspan></tspan><tspan class="07637e01-5a60-4990-8d5b-1a59ac2625f0"><tspan x="111.29" y="36"> </tspan><tspan x="-8.43" y="50.4">E</tspan><tspan class="ba7da15e-ac0b-4146-8421-8249f4c5ff61" x="-1.23" y="50.4">s</tspan><tspan class="0b5a06d1-094c-4703-ba41-33f9b21f5e05" x="4.6" y="50.4">t</tspan><tspan x="8.49" y="50.4">allido de sentidos </tspan><tspan class="ba8fc3a5-4396-4149-acf2-09bce6b95b21" x="104.66" y="50.4">c</tspan><tspan x="110.35" y="50.4">omunes en el </tspan><tspan class="7c22160b-0632-43ae-a679-914b046267a6" x="185.05" y="50.4">c</tspan><tspan x="190.75" y="50.4">emen</tspan><tspan class="7a972bcd-f157-4e2e-ae9d-5779b7cd767f" x="220.77" y="50.4">t</tspan><tspan x="224.65" y="50.4">o</tspan><tspan x="66.19" y="64.8">Ruido petrifi</tspan><tspan class="b7d31c96-0457-4cb8-8d7e-4e84c56ad8a1" x="131.45" y="64.8">c</tspan><tspan x="137.18" y="64.8">ado</tspan><tspan x="22.04" y="79.2">Co</tspan><tspan class="ba7da15e-ac0b-4146-8421-8249f4c5ff61" x="36.05" y="79.2">s</tspan><tspan x="41.88" y="79.2">t</tspan><tspan class="b1f30e3d-1fa1-4a26-8810-4ff2de0fb209" x="45.86" y="79.2">r</tspan><tspan x="50.8" y="79.2">as pa</tspan><tspan class="ba7da15e-ac0b-4146-8421-8249f4c5ff61" x="78.9" y="79.2">r</tspan><tspan x="83.83" y="79.2">a </tspan><tspan class="df1a418f-989c-4a2d-8f6e-468589577d7c" x="93.13" y="79.2">r</tspan><tspan x="97.77" y="79.2">e</tspan><tspan class="ba8fc3a5-4396-4149-acf2-09bce6b95b21" x="104.13" y="79.2">c</tspan><tspan x="109.83" y="79.2">o</tspan><tspan class="be97a26a-1595-400e-9565-8b76951fd262" x="116.19" y="79.2">r</tspan><tspan x="120.84" y="79.2">dar las heridas</tspan></tspan><tspan class="e673ce09-682f-4812-a690-4eba3085e52c"><tspan x="55.61" y="93.6">T</tspan><tspan class="24f348ad-b716-4afe-95c2-23a305652671" x="61.28" y="93.6">atuajes en la ciudad</tspan></tspan><tspan class="07637e01-5a60-4990-8d5b-1a59ac2625f0"><tspan x="47.77" y="108">Emociones apalab</tspan><tspan class="ba7da15e-ac0b-4146-8421-8249f4c5ff61" x="144.77" y="108">r</tspan><tspan x="149.7" y="108">adas</tspan><tspan x="29.24" y="122.4">Desbo</tspan><tspan class="df1a418f-989c-4a2d-8f6e-468589577d7c" x="62.52" y="122.4">r</tspan><tspan x="67.17" y="122.4">de del cuerpo individual</tspan><tspan x="26.08" y="136.8">Memoria si</tspan><tspan class="a3c87f31-d214-453d-8b3b-ee9fe673646a" x="85.52" y="136.8">l</tspan><tspan x="88.78" y="136.8">enciada, </tspan><tspan class="ba8fc3a5-4396-4149-acf2-09bce6b95b21" x="136.12" y="136.8">c</tspan><tspan x="141.82" y="136.8">ompartida</tspan><tspan x="-36.58" y="151.2">Fin del miedo dic</tspan><tspan class="7a972bcd-f157-4e2e-ae9d-5779b7cd767f" x="53.89" y="151.2">t</tspan><tspan class="24f348ad-b716-4afe-95c2-23a305652671" x="57.78" y="151.2">a</tspan><tspan class="7a972bcd-f157-4e2e-ae9d-5779b7cd767f" x="64.09" y="151.2">t</tspan><tspan x="67.98" y="151.2">orial, eme</tspan><tspan class="be97a26a-1595-400e-9565-8b76951fd262" x="121.73" y="151.2">r</tspan><tspan class="24f348ad-b716-4afe-95c2-23a305652671" x="126.37" y="151.2">gencia de nu</tspan><tspan class="ba7da15e-ac0b-4146-8421-8249f4c5ff61" x="193.58" y="151.2">ev</tspan><tspan x="205.06" y="151.2">os miedos</tspan><tspan x="-15.16" y="165.6">R</tspan><tspan class="ba7da15e-ac0b-4146-8421-8249f4c5ff61" x="-7.29" y="165.6">ev</tspan><tspan x="4.19" y="165.6">oltijo de u</tspan><tspan class="7a972bcd-f157-4e2e-ae9d-5779b7cd767f" x="56.15" y="165.6">t</tspan><tspan x="60.04" y="165.6">opías íntimas, pri</tspan><tspan class="b1f30e3d-1fa1-4a26-8810-4ff2de0fb209" x="151.62" y="165.6">v</tspan><tspan x="156.87" y="165.6">adas y públi</tspan><tspan class="b7d31c96-0457-4cb8-8d7e-4e84c56ad8a1" x="219.75" y="165.6">c</tspan><tspan x="225.48" y="165.6">as </tspan><tspan x="64.34" y="180">Cadá</tspan><tspan class="ba7da15e-ac0b-4146-8421-8249f4c5ff61" x="91.15" y="180">v</tspan><tspan x="96.39" y="180">er </tspan><tspan class="02beee0f-30a4-467b-9712-0b5fa3e579d2" x="110.79" y="180">e</tspan><tspan x="116.96" y="180">xquisi</tspan><tspan class="0b5a06d1-094c-4703-ba41-33f9b21f5e05" x="148" y="180">t</tspan><tspan x="151.89" y="180">o</tspan><tspan x="49.77" y="194.4">Enemigos identifi</tspan><tspan class="b7d31c96-0457-4cb8-8d7e-4e84c56ad8a1" x="141.92" y="194.4">c</tspan><tspan x="147.65" y="194.4">ados</tspan><tspan x="47.32" y="208.8">El cuidado </tspan><tspan class="ba8fc3a5-4396-4149-acf2-09bce6b95b21" x="105.47" y="208.8">c</tspan><tspan x="111.17" y="208.8">omo escudo</tspan><tspan x="29.15" y="223.2">Resi</tspan><tspan class="ba7da15e-ac0b-4146-8421-8249f4c5ff61" x="52.37" y="223.2">s</tspan><tspan class="0b5a06d1-094c-4703-ba41-33f9b21f5e05" x="58.2" y="223.2">t</tspan><tspan x="62.09" y="223.2">encia t</tspan><tspan class="ba7da15e-ac0b-4146-8421-8249f4c5ff61" x="97.39" y="223.2">r</tspan><tspan x="102.32" y="223.2">ans gene</tspan><tspan class="b1f30e3d-1fa1-4a26-8810-4ff2de0fb209" x="150.3" y="223.2">r</tspan><tspan x="155.23" y="223.2">acional</tspan><tspan x="39.85" y="237.6">N</tspan><tspan class="3efbe389-1c4b-4b46-a49f-65be90543d51" x="48.63" y="237.6">ew</tspan><tspan x="63.56" y="237.6">en y la patria p</tspan><tspan class="be97a26a-1595-400e-9565-8b76951fd262" x="141.63" y="237.6">r</tspan><tspan x="146.27" y="237.6">ofunda</tspan><tspan x="-5.51" y="252">“Chi</tspan><tspan class="a3c87f31-d214-453d-8b3b-ee9fe673646a" x="17.12" y="252">l</tspan><tspan x="20.39" y="252">e desper</tspan><tspan class="7a972bcd-f157-4e2e-ae9d-5779b7cd767f" x="66.54" y="252">t</tspan><tspan x="70.43" y="252">ó. Dime algo más lindo k eso” </tspan></tspan><tspan class="322d327f-5e7f-47f3-8fc1-a4d2df541073"><tspan x="28.28" y="277.2">(Alameda y P</tspan><tspan class="be97a26a-1595-400e-9565-8b76951fd262" x="80.36" y="277.2">r</tspan><tspan x="83.85" y="277.2">esiden</tspan><tspan class="0b5a06d1-094c-4703-ba41-33f9b21f5e05" x="110.09" y="277.2">t</tspan><tspan x="113.01" y="277.2">e Juan An</tspan><tspan class="0b5a06d1-094c-4703-ba41-33f9b21f5e05" x="152.17" y="277.2">t</tspan><tspan x="155.09" y="277.2">onio Ríos)</tspan><tspan x="45" y="309.6">*María </tspan><tspan class="53e8c2be-305f-4d3a-a972-bce3f77ec197" x="74.38" y="309.6">P</tspan><tspan x="79.96" y="309.6">aulina So</tspan><tspan class="a0bea254-b6d7-44b7-8a22-f430679d6f12" x="116.8" y="309.6">t</tspan><tspan x="119.71" y="309.6">o Labbé (1964)</tspan></tspan></text></svg>